<svg width="512" height="552" viewBox="0 0 512 552" fill="none" xmlns="http://www.w3.org/2000/svg">
<rect width="512" height="551.385" transform="translate(0 0.307678)" fill="black"/>
<path d="M55.2289 490.848V415.759H61.7724L96.0991 474.329H92.6664L126.671 415.759H133.215V490.848H125.599V427.666H127.422L96.0991 481.301H92.3446L60.807 427.666H62.8451V490.848H55.2289ZM162.83 490.848L197.157 415.759H204.987L239.314 490.848H230.947L199.409 420.371H202.627L171.09 490.848H162.83ZM176.346 470.789L178.706 464.352H222.365L224.725 470.789H176.346ZM275.979 452.124H315.669V458.989H275.979V452.124ZM276.837 490.848H268.899V415.759H320.389V422.624H276.837V490.848ZM353.945 490.848V415.759H361.883V490.848H353.945ZM391.463 490.848L425.79 415.759H433.621L467.947 490.848H459.58L428.043 420.371H431.261L399.723 490.848H391.463ZM404.979 470.789L407.339 464.352H450.999L453.359 470.789H404.979Z" fill="white"/>
<path d="M235.378 351.889C218.865 336.907 216.809 315.93 218.924 307.468L230.62 295.772C232.404 293.988 235.335 294.121 236.95 296.06L243.031 303.357C244.04 304.568 244.304 306.234 243.719 307.698L240.378 316.05L236.087 333.213L236.087 351.576C236.087 351.945 235.651 352.137 235.378 351.889Z" fill="white"/>
<path d="M274.728 351.889C291.241 336.907 293.297 315.93 291.182 307.468L279.486 295.772C277.702 293.988 274.771 294.121 273.156 296.06L267.074 303.357C266.065 304.568 265.801 306.234 266.387 307.698L269.728 316.05L274.018 333.213L274.018 351.576C274.018 351.945 274.455 352.137 274.728 351.889Z" fill="white"/>
<path d="M206.774 228.995C211.263 234.66 235.254 265.225 238.186 275.124C238.219 275.235 238.209 275.327 238.15 275.427C236.963 277.433 223.208 300.363 212.99 303.06C212.68 303.142 212.374 303.042 212.191 302.778C204.606 291.885 205.785 237.697 206.019 229.207C206.029 228.809 206.526 228.683 206.774 228.995Z" fill="white"/>
<path d="M301.635 228.995C297.146 234.66 273.155 265.225 270.222 275.124C270.19 275.235 270.199 275.327 270.258 275.427C271.445 277.433 285.2 300.363 295.419 303.06C295.729 303.142 296.035 303.042 296.218 302.778C303.802 291.885 302.623 237.697 302.39 229.207C302.379 228.809 301.882 228.683 301.635 228.995Z" fill="white"/>
<path d="M148.125 155.143C159.594 179.992 217.042 191.217 229.437 193.37C229.91 193.452 230.081 192.825 229.66 192.595L209.674 181.694C209.284 181.481 209.435 180.888 209.88 180.888H219.941C220.336 180.888 220.521 180.401 220.226 180.139L202.904 164.742C202.58 164.453 202.84 163.921 203.266 163.999L223.321 167.645C223.779 167.728 224.033 167.124 223.648 166.863C212.467 159.264 192.663 144.497 191.034 137.98C189.338 131.195 190.994 121.058 191.033 102.185C191.034 101.872 190.715 101.657 190.433 101.793C184.451 104.673 136.042 128.963 148.125 155.143Z" fill="white"/>
<path d="M366.958 140.125C363.176 170.383 302.718 190.639 288.438 195.016C287.96 195.163 287.718 194.535 288.146 194.278L317.032 176.946C317.302 176.784 317.311 176.396 317.049 176.221L311.367 172.433C311.242 172.35 311.142 172.236 311.075 172.103L307.045 164.043C306.943 163.839 306.765 163.685 306.549 163.613L301.489 161.926C300.96 161.75 300.737 161.125 301.035 160.654L326.04 121.063C326.133 120.914 326.127 120.723 326.024 120.581L309.273 97.5485C309.138 97.363 309.173 97.1043 309.352 96.9611L319.576 88.7812C319.69 88.6903 319.823 88.6566 319.96 88.7043C323.45 89.9137 371.092 107.054 366.958 140.125Z" fill="white"/>
<path d="M208.912 107.944H227.506C229.876 107.944 231.797 106.023 231.797 103.653L231.797 101.571C231.797 100.185 231.127 98.8845 230 98.079L216.779 88.6354L215.855 87.7117C213.682 85.5389 212.358 82.6605 212.123 79.5967L210.698 61.0741C210.506 58.582 212.477 56.4541 214.976 56.4541H216.272C217.897 56.4541 219.383 57.3724 220.11 58.8261L231.57 81.7461C233.024 84.6535 235.995 86.49 239.246 86.49H245.681C247.793 86.49 249.83 85.7116 251.403 84.3037L285.009 54.2354C287.812 51.7275 291.921 51.337 295.147 53.2721L296.283 53.9543C298.868 55.5052 300.45 58.2986 300.45 61.313V74.0142C300.45 76.4888 299.382 78.843 297.519 80.4726L286.039 90.5177C284.24 92.0922 282.037 93.1344 279.679 93.5275L259.52 96.8874C258.775 97.0115 258.542 97.9674 259.146 98.4204L265.894 103.482C266.043 103.593 266.224 103.653 266.409 103.653L284.526 103.653C287.915 103.653 291.227 102.65 294.047 100.771L309.032 90.7808V97.2171L319.759 88.6354L314.342 65.1647C313.67 62.2504 312.395 59.509 310.601 57.1163L300.45 43.5817L294.382 37.5135C292.772 35.9041 290.59 35 288.314 35H276.304C275.324 35 274.428 35.5537 273.99 36.4303C273.113 38.1834 271.321 39.2908 269.361 39.2908H246.569C243.979 39.2908 241.495 38.2618 239.663 36.4303C238.747 35.5145 237.505 35 236.21 35H226.77C224.494 35 222.311 35.9041 220.701 37.5135L218.924 39.2908L212.488 43.5817L197.47 71.4721V97.2171C197.47 99.9182 198.742 102.462 200.903 104.082L203.763 106.228C205.249 107.342 207.055 107.944 208.912 107.944Z" fill="white"/>
</svg>
